<svg xmlns="http://www.w3.org/2000/svg" width="222" height="102" style="shape-rendering:geometricPrecision;text-rendering:geometricPrecision;image-rendering:optimizeQuality;fill-rule:evenodd;clip-rule:evenodd">
  <path style="opacity:.75" fill="#FFFF" d="M67.5 41.5a5.73 5.73 0 0 0 1 3q-1.239 7.224-1.5 15a29 29 0 0 1-3 10q-3.94 3.732-8.5.5a11.4 11.4 0 0 1-1.5-3.5l-1-15q-7.256 8.304-13-1a90.5 90.5 0 0 1 0-19q3.122-1.25 6.5 0a67.2 67.2 0 0 0-.5 18q1.775 1.847 3.5 0 2.724-4.346 1.5-9 4.835-1.834 5-7 2.912-9.925 1.5-20 3.535-.245 7 .5 1.61 1.108 2 3a232 232 0 0 0-5 20.5 16.6 16.6 0 0 1 7-.5q-2.348 2.259-1 4.5m-6 2q3.87 11.526-1.5 23a92 92 0 0 1-1.5-6.5q.394-8.67 3-16.5"/>
  <path style="opacity:.74" fill="#FFFF" d="M68.5 44.5a5.73 5.73 0 0 1-1-3q1.222-2.006 3.5-3a69.8 69.8 0 0 0 3.5-25q9.91-2.627 7.5 7l-4.5 16q3.543.712 7 1l-2 4q4.204 15.318-3 29.5-5.184 1.685-8.5-2.5-2.36-9.716-.5-19.5-.388-2.68-2-4.5m8 0h3q.25 7.018-.5 14-.2 4.538-3 8a90.7 90.7 0 0 1 .5-22"/>
  <path style="opacity:.75" fill="#FFFF" d="M39.5 20.5q6.465-1.446 9 4.5-4.605 4.745-9-.5-1.96-2.047 0-4"/>
  <path style="opacity:.784" fill="#FFFF" d="M21.5 65.5q1.053.924 3 0-.093-2.9 3-5.5-.835-.575-1-1.5v-1q-7.409 1.722-10.5-5a57.8 57.8 0 0 1 1-20q6.425-10.722 16-2 .1 5.52 2.5 11a35.6 35.6 0 0 0-.5 13q2.56 1.212 2.5 4h-3q.25 10.013-.5 20-2.36 6.802-9.5 4.5-7.574-1.92-6.5-9.5 1.057-4.463 3.5-8m4-34q3.321 1.338 3 5a49.3 49.3 0 0 1-3.5 15q-2.57 2.138-4-1-2.18-10.68 4.5-19m1 26q.425-1.184 1.5-2 .792 1.974-1.5 2m-2 8q2.077-1.61 3.5-4a39.1 39.1 0 0 1-1 16q-4.696 2.499-4.5-3 1.008-4.518 2-9"/>
  <path style="opacity:.796" fill="#FFFF" d="M117.5 57.5q-7.48 1.725-10.5-5-1.972-12.508 3-24 7.461-3.543 14 2a34.5 34.5 0 0 0 2.5 10.5 67 67 0 0 0-1 14.5h3v3h-3q.25 10.013-.5 20-1.307 5.06-6.5 5-13.806-1.104-8.5-14 2.64-6.8 7.5-12m-1-26q3.321 1.338 3 5a60.2 60.2 0 0 1-3.5 15q-2.57 2.138-4-1-2.197-10.705 4.5-19m1 26q.424-1.184 1.5-2 .792 1.974-1.5 2m1 4q1.718 5.717.5 12-.398 3.227-3 5a3.94 3.94 0 0 1-2-1q-.824-8.856 4.5-16"/>
  <path style="opacity:.785" fill="#FFFF" d="M168.5 51.5q-.257 1.487 1 2-.951 2.17-3.5 2-3.458.024-5-3-3.653 7.086-11.5 4.5a6.98 6.98 0 0 1-2.5-3.5q-2.621 5.882-8.5 3a12.4 12.4 0 0 1-2.5-4q-1.986-7.591-1.5-15a51 51 0 0 1-4 5.5q-1.837.845-3-1 2.622-6.441 2-13.5h5v4q4.298-.668 7.5 2a52.4 52.4 0 0 1-1.5 12 18.4 18.4 0 0 0 2 7q1.96-2.118 2.5-5a74 74 0 0 1 4-19q6.393-5.55 13.5-.5a499 499 0 0 1 4 11.5q-1.458 4.446-.5 9 .625 1.884 2.5 2m-13-19q3.517.718 4 4.5a762 762 0 0 1-3.5 15.5q-1.517 1.255-3.5 1-2.755-11.226 3-21"/>
  <path style="opacity:.789" fill="#FFFF" d="M95.5 56.5q-6.95 1.563-9.5-5-2.256-12.009.5-24 4.444-.525 7 3-2.313 5.46-2 11.5l.5 8.5q.621.685 1.5 1a68 68 0 0 0 5-20q3.49-.38 6 2a63 63 0 0 0-.5 19q4.025 2.09.5 4a164 164 0 0 0-1.5 18q-4.584 8.677-13.5 5.5-4.467-13.38 6-23.5m0 0q-.059-1.884 1.5-3 .877 2.247-1.5 3m2 5v1q.435 6.655-1.5 13-.634 2.184-2.5 1.5-2.646-9.09 3.5-16.5.598.342.5 1"/>
  <path style="opacity:.778" fill="#FFFF" d="M169.5 53.5q-1.257-.513-1-2 3.95-10.582 4-22 2.951-.36 5.5 1l1 10q.66-7.894 8.5-6-.247 5.025.5 10 1.602-6.825 5.5-12.5 4.212-1.38 6.5 2.5a89 89 0 0 1-.5 10.5q-.163 4.05 1.5 7.5 3.335-3.807 3.5-9h3q.622 7.505-5 12.5-5.184 1.685-8.5-2.5a30 30 0 0 1-2-9 83 83 0 0 1-3.5 10.5q-8.055.947-7.5-7.5a26.6 26.6 0 0 1-2.5 9.5q-5.888 1.428-7.5-4.5-.575.835-1.5 1"/>
  <path style="opacity:.916" fill="#FFFF" d="M97.5 62.5v-1q1.083-.626 1.5-2 1 6 0 12-.27-4.792-1.5-9"/>
  <path style="opacity:.639" fill="#FFFF" d="M26.5 58.5q.165.925 1 1.5-3.093 2.6-3 5.5-1.947.924-3 0 .765-4.761 5-7"/>
</svg>
